# xmcd
#
# Track frame offsets:
# 150
# 23736
# 49094
# 76095
# 101451
# 120285
# 142199
# 172983
# 203491
# 224363
# 250186
# 279136
# 319223
#
# Disc length: 4538 seconds
#
#
# Revision: 1
# Processed by: cddbd v1.4PL0 Copyright (c) Steve Scherf et al.
# Submitted via: FreeRIP 2.11 
#
DISCID=a611b80d
DTITLE=DeeJay Time - Power Mix 22
DYEAR=1900
DGENRE=Dance
TTITLE0=Desert of love
TTITLE1=Hard in tango - This is my DJ
TTITLE2=Safeway - Fallin
TTITLE3=Jimmy gomma - Feels like Heaven
TTITLE4=Haddaway - What is love >reloaded<
TTITLE5=Soundlovers - Hyperfolk
TTITLE6=Floorfila - Anthem 
TTITLE7=Groove coverage - Poison
TTITLE8=Rino gaetano - Ma il cielo e`sempre piu blu
TTITLE9=Prezioco feat. Marvin - Voglio vedeti danzare
TTITLE10=Jan Wane meets Danielle - 1,2,3 (keep the spirita alive)
TTITLE11=Starsplash feat. Daisy Dee - Fly away (owner of your heart)
TTITLE12=Scooter vs. Marc Acardipane and Dick Rules - Maria (I like it loud)
EXTD=
EXTT0=
EXTT1=
EXTT2=
EXTT3=
EXTT4=
EXTT5=
EXTT6=
EXTT7=
EXTT8=
EXTT9=
EXTT10=
EXTT11=
EXTT12=
PLAYORDER=
